<?xml version="1.0" encoding="utf-8"?>
<!-- Generator: Adobe Illustrator 16.0.0, SVG Export Plug-In . SVG Version: 6.00 Build 0)  -->
<!DOCTYPE svg PUBLIC "-//W3C//DTD SVG 1.1//EN" "http://www.w3.org/Graphics/SVG/1.1/DTD/svg11.dtd">
<svg version="1.1" id="Layer_1" xmlns="http://www.w3.org/2000/svg" xmlns:xlink="http://www.w3.org/1999/xlink" x="0px" y="0px"
	 width="170.347px" height="53.955px" viewBox="0 0 170.347 53.955" enable-background="new 0 0 170.347 53.955"
	 xml:space="preserve">
<g>
	<g>
		<path d="M17.809,1.722c0,1.918,0.229,3.871,0.646,5.866L16.518,7.9c-0.418-3.323-2.431-5.007-5.847-5.007
			c-3.304,0-5.202,1.487-5.202,3.679c0,1.484,0.797,2.58,2.392,3.439c1.595,0.861,3.874,1.409,6.492,2.503
			c3.228,1.332,4.822,3.562,4.822,6.611c0,5.397-4.253,9.114-11.504,9.114c-2.202,0-4.633-0.43-6.987-1.369
			c0-0.393,0.039-0.744,0.039-1.096c0-2.072-0.266-4.106-0.723-6.141l2.014-0.509c0.91,4.46,2.619,6.299,6.947,6.299
			c3.456,0,5.392-1.761,5.392-4.226c0-3.244-2.923-3.716-6.834-5.24c-4.366-1.683-6.454-3.795-6.454-7.629
			c0-4.81,3.758-8.252,10.023-8.252c2.354,0,4.518,0.469,6.721,1.215V1.722z"/>
	</g>
</g>
<g>
	<g>
		<path d="M37.84,28.396c-7.86,0-13.365-5.945-13.365-13.809C24.475,6.376,30.701,0,39.207,0c3.569,0,6.758,1.212,9.188,3.48
			c2.963,2.738,4.595,6.533,4.595,10.68c0,6.257-3.303,11.107-9.15,13.221L37.84,28.396z M38.447,2.857
			c-4.859,0-8.277,3.949-8.277,10.833c0,7.509,3.721,12.047,8.923,12.047c4.86,0,8.163-3.989,8.163-10.912
			C47.256,7.471,43.572,2.857,38.447,2.857z"/>
	</g>
</g>
<g>
	<g>
		<path d="M68.252,2.424c-0.228,0-0.418-0.037-0.607-0.037c-2.582,0-2.695,1.643-2.695,5.749v4.382c0,3.755,0.036,6.412,0.569,8.018
			c0.949,3.011,3.377,4.693,6.873,4.693c2.847,0,4.821-0.979,6.074-2.972c1.025-1.644,1.178-4.108,1.178-7.512
			c0-1.29-0.038-2.697-0.038-4.261V8.488c0-4.382-0.152-6.102-2.697-6.102c-0.189,0-0.379,0-0.606,0.037v-1.72
			C78.238,0.821,79.833,0.9,81.123,0.9c1.178,0,2.734-0.079,4.671-0.196v1.72H85.49c-1.405,0-2.089,0.275-2.431,1.175
			c-0.377,1.056-0.377,4.342-0.457,9.934c-0.037,4.147,0.08,7.356-1.365,10.014c-1.746,3.208-5.277,5.126-9.986,5.126
			c-4.289,0-7.631-1.526-9.492-4.148c-1.746-2.463-1.936-5.356-1.936-9.229c0-2.27,0.114-4.889,0.114-7.9
			c0-3.64-0.114-4.97-2.621-4.97h-0.454v-1.72C59.179,0.821,61.038,0.9,62.519,0.9c1.404,0,3.303-0.079,5.733-0.196V2.424z"/>
	</g>
</g>
<g>
	<g>
		<path d="M103.03,0.588c4.936,14.901,8.048,22.802,8.467,23.781c0.569,1.368,1.328,1.877,2.697,1.877h0.417v1.721
			c-2.506-0.119-4.406-0.196-5.734-0.196c-1.29,0-3.264,0.077-5.884,0.196v-1.721h0.342c1.821,0,2.505-0.312,2.505-1.566
			c0-0.47-0.152-1.016-0.342-1.641l-1.52-4.617c-2.543-0.037-4.175-0.078-4.936-0.078c-1.062,0-2.581,0.041-4.555,0.078
			c-1.14,2.855-1.899,4.734-1.899,5.947c0,1.368,0.722,1.877,2.354,1.877h0.342v1.721c-2.277-0.119-4.024-0.196-5.2-0.196
			c-1.025,0-2.583,0.077-4.671,0.196v-1.721c1.746,0,2.734-0.548,3.493-2.074c0.494-0.938,3.985-8.799,9.604-23.584H103.03z
			 M95.475,15.725c1.404,0.037,2.62,0.037,3.607,0.037c1.176,0,2.506,0,3.985-0.037L99.539,5.164L95.475,15.725z"/>
	</g>
</g>
<g>
	<g>
		<path d="M118.218,26.323c2.505,0,2.582-1.76,2.582-6.492V16.39l0.075-4.263c0.037-2.661,0.037-4.617,0.037-5.908
			c0-2.775-0.304-3.832-2.694-3.832h-0.38V0.704c2.201,0.117,4.023,0.196,5.543,0.196c2.507,0,4.519-0.196,6.15-0.196
			c6.379,0,9.909,3.012,9.909,7.314c0,2.896-1.632,5.241-4.973,6.924l3.304,5.278c2.545,4.07,3.985,6.299,6.341,6.299
			c0.152,0,0.265-0.039,0.417-0.039v1.604c-1.328,0.118-2.508,0.195-3.419,0.195c-2.618,0-4.289-0.391-5.845-2.309
			c-0.913-1.094-2.582-4.341-5.696-9.307c-1.063,0.036-2.318,0.078-3.759,0.078v5.084c0,3.285,0.19,4.42,2.733,4.42h0.531v1.721
			c-2.429-0.156-4.479-0.196-6.151-0.196c-0.911,0-2.732,0.077-5.43,0.235v-1.72C117.761,26.323,117.99,26.323,118.218,26.323z
			 M128.618,14.355c0.762,0,1.637-0.041,2.585-0.117c2.162-1.447,3.112-3.209,3.112-5.633c0-3.09-2.164-5.359-5.732-5.359
			c-0.798,0-1.709,0.041-2.734,0.234c-0.038,3.951-0.038,7.549-0.038,10.758C127.102,14.314,128.012,14.355,128.618,14.355z"/>
	</g>
</g>
<g>
	<g>
		<path d="M157.97,0.939c3.416,0,6.795-0.039,10.101-0.273c0.038,2.228,0.188,4.379,0.454,6.53l-1.671,0.235
			c-0.38-3.521-2.05-4.067-6.606-4.067c-0.912,0-2.43,0.038-4.633,0.116c-0.036,3.365-0.075,6.454-0.113,9.27h0.532
			c1.974,0,3.57,0.041,4.821,0.041c2.999,0,4.14-0.313,4.215-2.504l1.517,0.156c-0.149,1.761-0.263,3.169-0.263,4.343
			c0,0.703,0.038,1.759,0.113,3.246l-1.558,0.116v-0.234c0-2.541-1.404-2.777-5.238-2.777h-4.177v2.19
			c0,2.973,0.037,5.516,0.075,7.746c0.873,0.115,2.468,0.235,4.821,0.235c4.898,0,6.837-0.313,8.277-4.616l1.709,0.546
			c-0.759,2.308-1.367,4.54-1.822,6.729c-4.404-0.156-8.239-0.275-11.543-0.275c-3.037,0-6.341,0.156-9.909,0.314v-1.72
			c0.227,0.037,0.456,0.037,0.684,0.037c2.582,0,2.659-1.721,2.659-6.14v-3.677l0.036-4.265c0.039-1.643,0.075-3.012,0.075-4.066
			c0-1.447-0.036-2.387-0.036-2.817c0-2.151-0.608-2.972-2.62-2.972h-0.417V0.666C152.01,0.861,155.501,0.939,157.97,0.939z"/>
	</g>
</g>
<g>
	<g>
		<path d="M1.011,51.608c2.316,0,2.543-1.446,2.543-5.241v-1.643c0-0.859,0-1.877-0.075-2.972L3.44,37.137V30.41
			c0-1.918-0.685-2.739-2.543-2.739h-0.38V25.95c2.012,0.118,3.721,0.196,5.201,0.196c3.037,0,5.277-0.234,6.606-0.234
			c6.606,0,10.214,3.284,10.214,8.018c0,4.927-3.684,8.449-10.557,8.449c-0.948,0-2.125-0.118-3.492-0.234v4.73
			c0,3.561,0.19,4.656,2.923,4.656h0.647v1.68c-2.431-0.113-4.558-0.194-6.379-0.194c-0.799,0-2.621,0.081-5.506,0.273v-1.72
			C0.479,51.608,0.745,51.608,1.011,51.608z M10.807,40.071c4.366,0,6.645-2.153,6.645-5.867c0-3.482-2.278-5.671-6.038-5.671
			c-0.986,0-1.936,0.115-2.884,0.272c-0.076,4.615-0.076,8.331-0.076,11.07C9.25,39.992,10.047,40.071,10.807,40.071z"/>
	</g>
</g>
<g>
	<g>
		<path d="M37.992,26.225c3.416,0,6.796-0.038,10.1-0.274c0.037,2.23,0.188,4.381,0.455,6.532l-1.671,0.233
			c-0.379-3.52-2.05-4.067-6.606-4.067c-0.912,0-2.43,0.041-4.633,0.118c-0.037,3.364-0.075,6.453-0.113,9.271h0.531
			c1.975,0,3.568,0.04,4.822,0.04c3,0,4.139-0.315,4.215-2.505l1.519,0.156c-0.151,1.761-0.267,3.168-0.267,4.343
			c0,0.703,0.039,1.758,0.115,3.247l-1.558,0.115v-0.234c0-2.541-1.404-2.778-5.239-2.778h-4.176v2.192
			c0,2.973,0.037,5.516,0.075,7.744c0.874,0.118,2.468,0.234,4.822,0.234c4.897,0,6.834-0.313,8.277-4.613l1.709,0.544
			c-0.759,2.31-1.368,4.54-1.823,6.73c-4.403-0.155-8.238-0.275-11.542-0.275c-3.038,0-6.342,0.156-9.911,0.313v-1.72
			c0.229,0.038,0.456,0.038,0.685,0.038c2.582,0,2.657-1.722,2.657-6.141v-3.677l0.039-4.264c0.037-1.643,0.076-3.01,0.076-4.066
			c0-1.45-0.039-2.388-0.039-2.818c0-2.15-0.608-2.972-2.619-2.972h-0.418V25.95C32.03,26.146,35.523,26.225,37.992,26.225z"/>
	</g>
</g>
<g>
	<g>
		<path d="M82.034,33.461l-1.859,0.391c-0.646-3.598-3.304-5.477-7.898-5.477c-6.113,0-9.719,3.873-9.719,10.756
			c0,7.434,4.137,11.932,10.138,11.932c1.403,0,2.733-0.275,4.063-0.822c0.037-2.074,0.072-3.443,0.072-4.028
			c0-3.403-0.302-4.186-3.491-4.186h-0.531v-1.721c2.163,0.115,4.022,0.194,5.694,0.194c1.786,0,3.76-0.079,5.81-0.194v1.721H84.01
			c-2.315,0-2.391,0.977-2.391,4.496v1.877c0,1.254,0.035,2.544,0.15,3.953c-3.798,0.858-7.14,1.603-10.216,1.603
			c-8.921,0-14.691-5.67-14.691-14.079c0-8.646,6.341-14.552,15.794-14.552c2.885,0,5.847,0.508,8.733,1.526
			C81.428,29.196,81.654,31.389,82.034,33.461z"/>
	</g>
</g>
<g>
	<g>
		<g>
			<path d="M35.597,21.705c1.962-1.801,4.003-2.813,5.774-3.094c3.405-0.539,5.423,0.723,8.9,3.36l0.596,0.45
				c3.089,2.299,5.363,3.375,7.648,3.014c1.347-0.214,3.033-1.722,4.423-2.879l0.623,0.015l-0.008,0.408
				c-1.632,1.238-3.196,3.178-5.526,3.547c-3.314,0.523-6.367-0.896-9.699-3.53l-0.591-0.422c-3.12-2.18-4.825-3.288-7.298-2.896
				c-1.398,0.219-2.807,0.988-4.226,2.304l-0.978,1.074c-0.53,0.573-0.962,1.186-1.428,1.862l-0.633-0.072
				c0.454-0.761,0.965-1.444,1.451-2.012L35.597,21.705z"/>
		</g>
		<g>
			<path d="M56.664,27.427c-2.768,0-5.486-1.171-8.813-3.796l-0.577-0.413c-2.579-1.802-4.128-2.825-5.884-2.825
				c-0.269,0-0.539,0.023-0.827,0.067c-1.227,0.194-2.501,0.894-3.786,2.08l-0.955,1.048c-0.495,0.535-0.908,1.123-1.359,1.778
				l-0.27,0.394l-2.329-0.269l0.63-1.054c0.438-0.729,0.951-1.442,1.531-2.117l1.035-1.199c1.963-1.804,4.161-2.973,6.187-3.293
				c0.562-0.089,1.083-0.133,1.593-0.133c2.893,0,5.012,1.441,7.91,3.645l0.596,0.449c2.751,2.047,4.637,2.922,6.299,2.922
				c0.249,0,0.5-0.02,0.747-0.059c1.008-0.158,2.473-1.391,3.65-2.379l0.617-0.516l1.713,0.037l-0.035,1.585l-0.304,0.231
				c-0.392,0.297-0.78,0.639-1.196,1.002c-1.273,1.116-2.718,2.385-4.687,2.695C57.657,27.387,57.157,27.426,56.664,27.427z
				 M44.074,19.393c1.207,0.524,2.473,1.383,4.115,2.531l0.631,0.451c2.047,1.619,3.816,2.633,5.485,3.12
				c-1.144-0.523-2.411-1.319-3.911-2.436l-0.601-0.454C47.302,20.714,45.748,19.71,44.074,19.393z"/>
		</g>
	</g>
</g>
<g>
	<path d="M87.776,32.168l1.403,4.89l1.492-4.89h1.861l1.462,4.86l1.448-4.86h1.936l-2.408,7.667h-1.95l-1.462-4.742l-1.492,4.742
		h-1.965l-2.379-7.667H87.776z"/>
	<path d="M102.091,32.05c0.63,0,1.187,0.094,1.669,0.281s0.892,0.453,1.227,0.798s0.588,0.761,0.761,1.248
		c0.172,0.488,0.259,1.032,0.259,1.632c0,0.571-0.084,1.098-0.251,1.581c-0.168,0.483-0.417,0.901-0.746,1.256
		c-0.33,0.354-0.739,0.63-1.227,0.827s-1.051,0.295-1.691,0.295c-0.649,0-1.219-0.099-1.706-0.295s-0.894-0.47-1.219-0.82
		s-0.568-0.766-0.731-1.248c-0.162-0.482-0.243-1.014-0.243-1.596c0-1.221,0.327-2.186,0.982-2.896
		C99.828,32.404,100.801,32.05,102.091,32.05z M102.084,33.689c-0.305,0-0.584,0.054-0.84,0.163
		c-0.255,0.108-0.479,0.264-0.67,0.465c-0.191,0.202-0.341,0.446-0.448,0.731c-0.108,0.286-0.162,0.605-0.162,0.96
		c0,0.325,0.052,0.63,0.154,0.916s0.245,0.532,0.427,0.739c0.182,0.207,0.402,0.372,0.663,0.495c0.26,0.124,0.552,0.185,0.876,0.185
		c0.323,0,0.618-0.059,0.883-0.177s0.491-0.283,0.678-0.495s0.331-0.46,0.434-0.746c0.104-0.286,0.155-0.591,0.155-0.916
		c0-0.345-0.052-0.66-0.155-0.945c-0.103-0.286-0.25-0.529-0.441-0.731c-0.191-0.202-0.42-0.359-0.685-0.473
		C102.688,33.747,102.397,33.689,102.084,33.689z"/>
	<path d="M111.368,32.05c0.63,0,1.187,0.094,1.669,0.281s0.892,0.453,1.227,0.798s0.588,0.761,0.761,1.248
		c0.172,0.488,0.259,1.032,0.259,1.632c0,0.571-0.084,1.098-0.251,1.581c-0.168,0.483-0.417,0.901-0.746,1.256
		c-0.33,0.354-0.739,0.63-1.227,0.827s-1.051,0.295-1.691,0.295c-0.649,0-1.219-0.099-1.706-0.295s-0.894-0.47-1.219-0.82
		s-0.568-0.766-0.731-1.248c-0.162-0.482-0.243-1.014-0.243-1.596c0-1.221,0.327-2.186,0.982-2.896
		C109.105,32.404,110.078,32.05,111.368,32.05z M111.361,33.689c-0.305,0-0.584,0.054-0.84,0.163
		c-0.255,0.108-0.479,0.264-0.67,0.465c-0.191,0.202-0.341,0.446-0.448,0.731c-0.108,0.286-0.162,0.605-0.162,0.96
		c0,0.325,0.052,0.63,0.154,0.916s0.245,0.532,0.427,0.739c0.182,0.207,0.402,0.372,0.663,0.495c0.26,0.124,0.552,0.185,0.876,0.185
		c0.323,0,0.618-0.059,0.883-0.177s0.491-0.283,0.678-0.495s0.331-0.46,0.434-0.746c0.104-0.286,0.155-0.591,0.155-0.916
		c0-0.345-0.052-0.66-0.155-0.945c-0.103-0.286-0.25-0.529-0.441-0.731c-0.191-0.202-0.42-0.359-0.685-0.473
		C111.965,33.747,111.675,33.689,111.361,33.689z"/>
	<path d="M124.175,38.417c0,0.197,0.025,0.433,0.074,0.709s0.104,0.512,0.162,0.709h-1.388c-0.05-0.069-0.102-0.202-0.155-0.399
		c-0.055-0.197-0.087-0.359-0.097-0.487c-0.187,0.286-0.497,0.534-0.931,0.746c-0.433,0.211-0.931,0.317-1.491,0.317
		c-0.562,0-1.066-0.099-1.515-0.295s-0.83-0.473-1.145-0.827c-0.315-0.354-0.56-0.776-0.731-1.263
		c-0.173-0.487-0.259-1.027-0.259-1.618c0-0.581,0.089-1.115,0.266-1.603c0.178-0.488,0.427-0.906,0.746-1.256
		c0.32-0.35,0.704-0.621,1.152-0.813s0.943-0.288,1.485-0.288c0.777,0,1.472,0.217,2.082,0.65v-3.442h1.743V38.417z M120.733,33.705
		c-0.325,0-0.628,0.059-0.908,0.177c-0.281,0.118-0.524,0.28-0.731,0.487s-0.369,0.453-0.487,0.739s-0.178,0.591-0.178,0.916
		c0,0.306,0.049,0.601,0.147,0.887s0.241,0.539,0.429,0.761c0.187,0.222,0.408,0.401,0.665,0.539
		c0.256,0.138,0.546,0.207,0.871,0.207c0.188,0,0.387-0.022,0.599-0.067c0.212-0.044,0.408-0.11,0.591-0.199
		c0.182-0.088,0.342-0.202,0.48-0.34c0.138-0.138,0.23-0.295,0.28-0.473v-3.117C121.881,33.877,121.295,33.705,120.733,33.705z"/>
	<path d="M127.352,32.168l1.403,4.89l1.492-4.89h1.861l1.462,4.86l1.448-4.86h1.936l-2.408,7.667h-1.95l-1.462-4.742l-1.492,4.742
		h-1.965l-2.379-7.667H127.352z"/>
	<path d="M141.666,32.05c0.63,0,1.187,0.094,1.669,0.281s0.892,0.453,1.227,0.798s0.588,0.761,0.761,1.248
		c0.172,0.488,0.259,1.032,0.259,1.632c0,0.571-0.084,1.098-0.251,1.581c-0.168,0.483-0.417,0.901-0.746,1.256
		c-0.33,0.354-0.739,0.63-1.227,0.827s-1.051,0.295-1.691,0.295c-0.649,0-1.219-0.099-1.706-0.295s-0.894-0.47-1.219-0.82
		s-0.568-0.766-0.731-1.248c-0.162-0.482-0.243-1.014-0.243-1.596c0-1.221,0.327-2.186,0.982-2.896
		C139.403,32.404,140.376,32.05,141.666,32.05z M141.659,33.689c-0.305,0-0.584,0.054-0.84,0.163
		c-0.255,0.108-0.479,0.264-0.67,0.465c-0.191,0.202-0.341,0.446-0.448,0.731c-0.108,0.286-0.162,0.605-0.162,0.96
		c0,0.325,0.052,0.63,0.154,0.916s0.245,0.532,0.427,0.739c0.182,0.207,0.402,0.372,0.663,0.495c0.26,0.124,0.552,0.185,0.876,0.185
		c0.323,0,0.618-0.059,0.883-0.177s0.491-0.283,0.678-0.495s0.331-0.46,0.434-0.746c0.104-0.286,0.155-0.591,0.155-0.916
		c0-0.345-0.052-0.66-0.155-0.945c-0.103-0.286-0.25-0.529-0.441-0.731c-0.191-0.202-0.42-0.359-0.685-0.473
		C142.263,33.747,141.973,33.689,141.659,33.689z"/>
	<path d="M151.208,32.05c0.227,0,0.419,0.02,0.576,0.059c0.158,0.04,0.311,0.089,0.458,0.148v1.95
		c-0.256-0.128-0.5-0.216-0.731-0.266s-0.465-0.074-0.701-0.074c-0.473,0-0.864,0.168-1.175,0.502
		c-0.31,0.335-0.465,0.827-0.465,1.477v3.989h-1.772v-7.667h1.655v0.99c0.305-0.384,0.624-0.665,0.959-0.842
		S150.745,32.05,151.208,32.05z"/>
	<path d="M155.788,36.422h-0.635v3.413h-1.772V29.258h1.772v5.54h0.562l2.407-2.629h2.319l-3.265,3.309l3.294,4.358h-2.289
		L155.788,36.422z"/>
	<path d="M164.977,32.035c0.296,0,0.608,0.029,0.938,0.088s0.64,0.177,0.931,0.355c0.29,0.177,0.539,0.431,0.746,0.761
		s0.335,0.771,0.384,1.322h-1.743c-0.029-0.187-0.094-0.347-0.191-0.48c-0.099-0.133-0.21-0.241-0.333-0.325
		c-0.123-0.083-0.256-0.143-0.398-0.177c-0.144-0.034-0.278-0.051-0.406-0.051c-0.414,0-0.722,0.076-0.924,0.229
		c-0.201,0.153-0.303,0.338-0.303,0.554c0,0.187,0.104,0.33,0.311,0.428c0.207,0.099,0.468,0.185,0.783,0.259
		c0.314,0.074,0.654,0.153,1.019,0.236s0.71,0.205,1.034,0.362c0.345,0.177,0.633,0.431,0.864,0.761
		c0.231,0.33,0.348,0.751,0.348,1.263c0,0.758-0.291,1.339-0.872,1.743s-1.364,0.605-2.349,0.605c-0.522,0-0.982-0.071-1.381-0.214
		c-0.399-0.143-0.734-0.34-1.005-0.591c-0.271-0.251-0.485-0.546-0.643-0.886s-0.261-0.702-0.311-1.085h1.729
		c0.118,0.423,0.32,0.736,0.605,0.938c0.286,0.202,0.621,0.303,1.005,0.303c0.394,0,0.727-0.082,0.997-0.244
		c0.271-0.163,0.406-0.382,0.406-0.658c0-0.207-0.101-0.362-0.303-0.465c-0.202-0.103-0.458-0.197-0.769-0.28
		c-0.31-0.084-0.647-0.167-1.012-0.251c-0.364-0.083-0.704-0.209-1.02-0.376c-0.335-0.167-0.612-0.406-0.834-0.717
		c-0.222-0.31-0.333-0.716-0.333-1.219c0-0.414,0.094-0.761,0.281-1.041c0.187-0.281,0.426-0.507,0.716-0.68
		c0.291-0.172,0.616-0.293,0.976-0.362S164.632,32.035,164.977,32.035z"/>
</g>
</svg>
